<?xml version="1.0" encoding="UTF-8" standalone="no"?>
<!-- Created with Inkscape (http://www.inkscape.org/) -->

<svg
   version="1.1"
   id="svg2"
   width="300"
   height="250"
   viewBox="0 0 300 250"
   sodipodi:docname="gamepad01.svg"
   inkscape:version="1.2.2 (732a01da63, 2022-12-09)"
   inkscape:export-filename="gamepad01.png"
   inkscape:export-xdpi="96"
   inkscape:export-ydpi="96"
   xmlns:inkscape="http://www.inkscape.org/namespaces/inkscape"
   xmlns:sodipodi="http://sodipodi.sourceforge.net/DTD/sodipodi-0.dtd"
   xmlns="http://www.w3.org/2000/svg"
   xmlns:svg="http://www.w3.org/2000/svg">
  <defs
     id="defs6">
    <clipPath
       clipPathUnits="userSpaceOnUse"
       id="clipPath271">
      <g
         id="g275">
        <g
           inkscape:label="Clip"
           id="use273"
           clip-path="url(#clipPath271)">
          <path
             style="fill:#050505;stroke:none;stroke-width:1.33333"
             d="m 140.04362,141.91568 c -5.12134,2.80454 -5.37467,8.11 -5.41067,13.29627 -0.0568,8.21306 3.05333,23.8772 -3.09187,30.26333 -4.586,4.766 -12.5808,5.27933 -18.2428,8.338 -14.208129,7.67734 -25.925726,17.90267 -33.929066,32.06534 -14.59053,25.82133 -15.606,55.768 -22.6532,84 -6.0468,24.224 -9.7184,48.876 -14.5792,73.33333 -4.96947,25.00267 -10.92627,49.74801 -15.99907,74.66667 -1.88893,9.27867 -4.59093,18.62267 -5.894,28.00001 -4.43533,31.92 3.4076,63.67733 26.38787,86.66666 4.61893,4.62134 9.06907,9.69734 14.66667,13.16001 46.454536,28.74133 110.865336,17.54266 140.032006,-30.49334 7.864,-12.952 9.572,-27.44933 14.76933,-41.33333 6.71067,-17.928 21.884,-34.53201 39.86534,-41.71467 20.01333,-7.996 40.16533,-6.28534 61.33333,-6.28534 41.17467,0 91.05734,-9.46666 121.77201,24.60801 14.892,16.52 16.644,37.11466 25.34,56.72533 5.85733,13.208 16.83733,25.036 27.55466,34.49334 30.764,27.15066 81.14401,25.13066 114.66667,5.03733 6.64267,-3.98133 11.932,-10.06134 17.32801,-15.53067 21.49733,-21.792 30.588,-52.47333 26.39333,-82.66667 -2.05467,-14.78133 -6.64267,-29.41733 -9.78133,-44 -10.21067,-47.444 -19.01734,-95.164 -29.18134,-142.66667 -6.68,-31.21067 -22.62411,-67.26727 -32.72839,-81.9872 -4.43601,-7.71618 -17.74565,-21.43881 -23.80077,-25.78661 -5.83827,-4.09292 -12.78454,-7.64031 -17.6508,-10.02228 -5.19077,-2.54082 1.22319,-36.28435 -7.99071,-42.16685 -5.91467,-3.2396 -16.03867,-2.66868 -22.588,-2.66868 h -54.66667 c -6.29066,0 -19.644,-1.20572 -24.55333,3.43615 -6.78667,6.4168 -4.724,20.2444 -4.78134,28.5288 -0.032,4.75213 0.0933,10.0648 -5.41066,11.57613 -5.24,1.43907 -11.856,0.42387 -17.25467,0.42387 h -36 c -35.88667,0 -72.15067,1.53626 -107.99867,-0.0257 -18.24134,-0.7948 -3.292,-30.588 -14.08133,-40.50306 -5.03067,-4.62227 -18.20934,-3.11158 -24.58667,-3.11158 h -54.66667 c -6.54933,0 -16.67333,-0.89549 -22.588,2.34411 m 379.92134,41.10191 H 440.3481 c -0.91319,-8.56234 -0.62885,-17.3638 0.0409,-27.94775 h 78.70168 m -287.12569,28.14211 c -27.40595,0 -54.84401,0.23154 -82.17256,-3e-5 v -27.96197 c 39.86354,0.17095 44.67719,0.14082 80.03523,-9.7e-4 0,11.9074 0.005,19.99179 0,27.96294 m -51.19566,44.5 c 50.64133,-9.46267 95.13914,30.29418 97.27514,78.86619 0.18267,4.13733 -0.62314,13.90848 -1.10447,17.96715 -4.24533,35.77066 -30.444,67.29333 -66.83734,74.16667 -39.884,7.532 -80.39147,-13.16001 -97.39813,-50.16667 -5.54414,-12.064 -6.60187,-24.296 -6.60187,-37.33334 0,-11.70666 2.33147,-22.724 7.57307,-33.33333 6.82666,-13.81734 16.19666,-24.86267 28.42693,-34 11.412,-8.52534 24.73067,-13.56267 38.66667,-16.16667 m 288.00001,0 c 45.04267,-8.416 91.01334,27.38267 98.32134,71.5 5.196,31.368 -7.628,60.22 -30.32134,81.21334 -9.904,9.16267 -23.948,16.144 -37.33333,18.35333 -23.07334,3.80934 -47.296,0.124 -66.66667,-13.74933 -22.116,-15.84 -37.13815,-37.28051 -37.66748,-64.72451 -0.0707,-3.66267 0.18029,-15.80522 0.70162,-19.38789 3.668,-25.23333 16.46452,-44.71694 38.29919,-58.79694 10.67067,-6.88133 22.15734,-12.07067 34.66667,-14.408 m 8,27.084 c -26.616,8.30933 -12.25733,46.58667 13.332,36.76 22.45733,-8.624 8.97467,-43.724 -13.332,-36.76 m -45.332,44.10833 c -24.35467,8.24267 -11.57867,45.46134 11.99867,38.104 24.14,-7.532 12.76666,-46.48667 -11.99867,-38.104 m 88,-0.17466 c -25.11733,7.29333 -11.624,45.64666 11.99867,38.27866 24.29067,-7.57466 13.06533,-45.556 -11.99867,-38.27866 m -42.668,42.668 c -25.88933,7.328 -13.97067,46.52933 11.99467,38.27733 22.98,-7.30133 11.07333,-44.808 -11.99467,-38.27733 m -98.66667,53.00133 c 22.77867,-1.79466 26,34.15867 4,36.64 -25.30533,2.85334 -28.96533,-34.67066 -4,-36.64 m -90.66,1.392 c 5.01333,-1.39466 12.86933,-1.332 17.30666,1.55867 13.60534,8.868 10.412,29.20267 -5.31333,33.22933 -6.96,1.78267 -15.77467,0.0293 -19.988,-6.20666 -5.82133,-8.616 -2.94,-25.54 7.99467,-28.58134 z"
             id="path584"
             sodipodi:nodetypes="cccccccsccccccsccccccccccscsscccssscssccccccccccccccssccccscccsccccsccccccccccccccccsc" />
        </g>
      </g>
    </clipPath>
  </defs>
  <sodipodi:namedview
     id="namedview4"
     pagecolor="#ffffff"
     bordercolor="#000000"
     borderopacity="0.25"
     inkscape:showpageshadow="2"
     inkscape:pageopacity="0.0"
     inkscape:pagecheckerboard="true"
     inkscape:deskcolor="#d1d1d1"
     showgrid="false"
     inkscape:zoom="3.081"
     inkscape:cx="164.39468"
     inkscape:cy="135.67024"
     inkscape:window-width="2560"
     inkscape:window-height="1369"
     inkscape:window-x="-8"
     inkscape:window-y="-8"
     inkscape:window-maximized="1"
     inkscape:current-layer="g8"
     showguides="true"
     inkscape:lockguides="true">
    <inkscape:grid
       type="xygrid"
       id="grid588"
       originx="-20.364341"
       originy="-36.2209" />
  </sodipodi:namedview>
  <g
     inkscape:groupmode="layer"
     inkscape:label="Image"
     id="g8"
     transform="translate(-20.364341,-36.220898)">
    <path
       style="fill:#ffffff;stroke-width:0.073206"
       d=""
       id="path572" />
    <circle
       style="fill:#9cd95e;stroke:#000000;stroke-width:0.451095;stroke-opacity:1;fill-opacity:1"
       id="path2167-0-9"
       cx="236.86047"
       cy="170.85185"
       r="8.8517189" />
  </g>
</svg>
