<?xml version="1.0" encoding="UTF-8" standalone="no"?>
<!-- Created with Inkscape (http://www.inkscape.org/) -->

<svg
   version="1.1"
   id="svg2"
   width="300"
   height="250"
   viewBox="0 0 300 250"
   sodipodi:docname="gamepad.svg"
   inkscape:version="1.2.2 (732a01da63, 2022-12-09)"
   inkscape:export-filename="gamepad.png"
   inkscape:export-xdpi="96"
   inkscape:export-ydpi="96"
   xmlns:inkscape="http://www.inkscape.org/namespaces/inkscape"
   xmlns:sodipodi="http://sodipodi.sourceforge.net/DTD/sodipodi-0.dtd"
   xmlns="http://www.w3.org/2000/svg"
   xmlns:svg="http://www.w3.org/2000/svg">
  <defs
     id="defs6">
    <clipPath
       clipPathUnits="userSpaceOnUse"
       id="clipPath271">
      <g
         id="g275">
        <g
           inkscape:label="Clip"
           id="use273"
           clip-path="url(#clipPath271)">
          <path
             style="fill:#050505;stroke:none;stroke-width:1.33333"
             d="m 140.04362,141.91568 c -5.12134,2.80454 -5.37467,8.11 -5.41067,13.29627 -0.0568,8.21306 3.05333,23.8772 -3.09187,30.26333 -4.586,4.766 -12.5808,5.27933 -18.2428,8.338 -14.208129,7.67734 -25.925726,17.90267 -33.929066,32.06534 -14.59053,25.82133 -15.606,55.768 -22.6532,84 -6.0468,24.224 -9.7184,48.876 -14.5792,73.33333 -4.96947,25.00267 -10.92627,49.74801 -15.99907,74.66667 -1.88893,9.27867 -4.59093,18.62267 -5.894,28.00001 -4.43533,31.92 3.4076,63.67733 26.38787,86.66666 4.61893,4.62134 9.06907,9.69734 14.66667,13.16001 46.454536,28.74133 110.865336,17.54266 140.032006,-30.49334 7.864,-12.952 9.572,-27.44933 14.76933,-41.33333 6.71067,-17.928 21.884,-34.53201 39.86534,-41.71467 20.01333,-7.996 40.16533,-6.28534 61.33333,-6.28534 41.17467,0 91.05734,-9.46666 121.77201,24.60801 14.892,16.52 16.644,37.11466 25.34,56.72533 5.85733,13.208 16.83733,25.036 27.55466,34.49334 30.764,27.15066 81.14401,25.13066 114.66667,5.03733 6.64267,-3.98133 11.932,-10.06134 17.32801,-15.53067 21.49733,-21.792 30.588,-52.47333 26.39333,-82.66667 -2.05467,-14.78133 -6.64267,-29.41733 -9.78133,-44 -10.21067,-47.444 -19.01734,-95.164 -29.18134,-142.66667 -6.68,-31.21067 -22.62411,-67.26727 -32.72839,-81.9872 -4.43601,-7.71618 -17.74565,-21.43881 -23.80077,-25.78661 -5.83827,-4.09292 -12.78454,-7.64031 -17.6508,-10.02228 -5.19077,-2.54082 1.22319,-36.28435 -7.99071,-42.16685 -5.91467,-3.2396 -16.03867,-2.66868 -22.588,-2.66868 h -54.66667 c -6.29066,0 -19.644,-1.20572 -24.55333,3.43615 -6.78667,6.4168 -4.724,20.2444 -4.78134,28.5288 -0.032,4.75213 0.0933,10.0648 -5.41066,11.57613 -5.24,1.43907 -11.856,0.42387 -17.25467,0.42387 h -36 c -35.88667,0 -72.15067,1.53626 -107.99867,-0.0257 -18.24134,-0.7948 -3.292,-30.588 -14.08133,-40.50306 -5.03067,-4.62227 -18.20934,-3.11158 -24.58667,-3.11158 h -54.66667 c -6.54933,0 -16.67333,-0.89549 -22.588,2.34411 m 379.92134,41.10191 H 440.3481 c -0.91319,-8.56234 -0.62885,-17.3638 0.0409,-27.94775 h 78.70168 m -287.12569,28.14211 c -27.40595,0 -54.84401,0.23154 -82.17256,-3e-5 v -27.96197 c 39.86354,0.17095 44.67719,0.14082 80.03523,-9.7e-4 0,11.9074 0.005,19.99179 0,27.96294 m -51.19566,44.5 c 50.64133,-9.46267 95.13914,30.29418 97.27514,78.86619 0.18267,4.13733 -0.62314,13.90848 -1.10447,17.96715 -4.24533,35.77066 -30.444,67.29333 -66.83734,74.16667 -39.884,7.532 -80.39147,-13.16001 -97.39813,-50.16667 -5.54414,-12.064 -6.60187,-24.296 -6.60187,-37.33334 0,-11.70666 2.33147,-22.724 7.57307,-33.33333 6.82666,-13.81734 16.19666,-24.86267 28.42693,-34 11.412,-8.52534 24.73067,-13.56267 38.66667,-16.16667 m 288.00001,0 c 45.04267,-8.416 91.01334,27.38267 98.32134,71.5 5.196,31.368 -7.628,60.22 -30.32134,81.21334 -9.904,9.16267 -23.948,16.144 -37.33333,18.35333 -23.07334,3.80934 -47.296,0.124 -66.66667,-13.74933 -22.116,-15.84 -37.13815,-37.28051 -37.66748,-64.72451 -0.0707,-3.66267 0.18029,-15.80522 0.70162,-19.38789 3.668,-25.23333 16.46452,-44.71694 38.29919,-58.79694 10.67067,-6.88133 22.15734,-12.07067 34.66667,-14.408 m 8,27.084 c -26.616,8.30933 -12.25733,46.58667 13.332,36.76 22.45733,-8.624 8.97467,-43.724 -13.332,-36.76 m -45.332,44.10833 c -24.35467,8.24267 -11.57867,45.46134 11.99867,38.104 24.14,-7.532 12.76666,-46.48667 -11.99867,-38.104 m 88,-0.17466 c -25.11733,7.29333 -11.624,45.64666 11.99867,38.27866 24.29067,-7.57466 13.06533,-45.556 -11.99867,-38.27866 m -42.668,42.668 c -25.88933,7.328 -13.97067,46.52933 11.99467,38.27733 22.98,-7.30133 11.07333,-44.808 -11.99467,-38.27733 m -98.66667,53.00133 c 22.77867,-1.79466 26,34.15867 4,36.64 -25.30533,2.85334 -28.96533,-34.67066 -4,-36.64 m -90.66,1.392 c 5.01333,-1.39466 12.86933,-1.332 17.30666,1.55867 13.60534,8.868 10.412,29.20267 -5.31333,33.22933 -6.96,1.78267 -15.77467,0.0293 -19.988,-6.20666 -5.82133,-8.616 -2.94,-25.54 7.99467,-28.58134 z"
             id="path584"
             sodipodi:nodetypes="cccccccsccccccsccccccccccscsscccssscssccccccccccccccssccccscccsccccsccccccccccccccccsc" />
        </g>
      </g>
    </clipPath>
  </defs>
  <sodipodi:namedview
     id="namedview4"
     pagecolor="#ffffff"
     bordercolor="#000000"
     borderopacity="0.25"
     inkscape:showpageshadow="2"
     inkscape:pageopacity="0.0"
     inkscape:pagecheckerboard="true"
     inkscape:deskcolor="#d1d1d1"
     showgrid="false"
     inkscape:zoom="4.357192"
     inkscape:cx="104.99882"
     inkscape:cy="132.88375"
     inkscape:window-width="3440"
     inkscape:window-height="1369"
     inkscape:window-x="-8"
     inkscape:window-y="-8"
     inkscape:window-maximized="1"
     inkscape:current-layer="g8"
     showguides="true"
     inkscape:lockguides="true">
    <inkscape:grid
       type="xygrid"
       id="grid588"
       originx="-20.364341"
       originy="-36.2209" />
  </sodipodi:namedview>
  <g
     inkscape:groupmode="layer"
     inkscape:label="Image"
     id="g8"
     transform="translate(-20.364341,-36.220898)">
    <path
       style="fill:#ffffff;stroke:#000000;stroke-width:0.414115;stroke-opacity:1"
       d="m 262.57835,279.55953 c -6.37053,-0.81023 -12.79256,-3.10863 -17.36844,-6.21605 -5.95908,-4.04674 -12.73182,-11.7019 -15.50191,-17.52167 -0.78248,-1.64394 -2.48104,-6.15696 -3.77457,-10.02894 -3.29894,-9.87483 -4.8963,-12.80033 -9.50552,-17.40898 -3.11705,-3.11667 -4.4021,-4.07164 -7.67773,-5.70564 -8.83386,-4.40664 -14.68571,-5.01523 -42.86096,-4.45751 -17.99532,0.35621 -21.19365,0.51597 -24.43281,1.22042 -7.07396,1.53846 -11.12926,3.60107 -15.79639,8.03439 -5.59256,5.31239 -7.75393,9.13081 -10.72116,18.94073 -2.58519,8.54685 -3.18121,9.9702 -5.8666,14.01006 -5.83685,8.78087 -14.527845,14.77578 -25.768532,17.77472 -3.478521,0.92805 -4.802454,1.05906 -10.79755,1.06847 -9.044918,0.0142 -13.931431,-1.08681 -21.473505,-4.83836 -8.055507,-4.00693 -15.930727,-12.98918 -19.509162,-22.25159 -2.238241,-5.79345 -3.013688,-10.87822 -2.805477,-18.39606 0.157178,-5.67522 0.396932,-7.57649 1.671067,-13.2517 4.062148,-18.0935 8.353575,-38.52179 10.439327,-49.69386 1.275658,-6.83291 3.13801,-16.05733 4.138559,-20.49872 1.00055,-4.44139 2.309947,-10.77735 2.909772,-14.07992 3.389933,-18.66461 6.788744,-26.70019 14.34918,-33.92482 2.945504,-2.814673 8.19101,-6.097636 11.908467,-7.453059 6.228213,-2.270872 6.704159,-3.186244 6.609646,-12.712093 -0.06187,-6.235511 0.0055,-6.950402 0.750175,-7.95685 1.752857,-2.369133 1.457931,-2.338567 23.727073,-2.459041 18.91969,-0.102354 20.6081,-0.05451 21.91869,0.621171 2.78463,1.435629 3.08547,2.293846 3.34658,9.547001 0.2567,7.130611 0.68234,8.493613 2.84187,9.100431 0.59841,0.168145 17.71475,0.30572 38.03634,0.30572 h 36.94835 l 0.94323,-0.941756 c 0.87967,-0.8783 0.95798,-1.380545 1.16225,-7.454077 0.30945,-9.20116 1.08642,-10.592297 6.24421,-11.180042 1.45602,-0.165917 11.03314,-0.208492 21.2825,-0.09461 14.48897,0.160992 18.87579,0.331194 19.71653,0.764981 1.96938,1.016123 2.49186,2.930991 2.88354,10.568023 0.19703,3.841635 0.47083,7.339576 0.60846,7.773205 0.13763,0.433629 1.2148,1.2771 2.39372,1.874382 6.23642,3.159592 13.17613,9.418894 16.98161,15.316624 5.0467,7.82136 11.08089,22.37234 13.88444,33.48125 0.45985,1.82211 3.65251,17.19614 7.09481,34.16453 3.44229,16.96838 7.17971,34.71809 8.30537,39.44379 2.73084,11.46448 3.29349,14.91352 3.29349,20.18884 0,7.77937 -1.59962,14.29954 -5.14173,20.95801 -2.4516,4.60851 -4.66493,7.40194 -9.82102,12.39498 -4.66482,4.51731 -8.00356,6.49818 -14.55989,8.63838 -6.43265,2.09983 -15.19677,3.07412 -21.0063,2.33524 z"
       id="path541"
       sodipodi:nodetypes="ssssssssssssssssssssssscssssscsssssssssssssssss" />
    <path
       style="fill:#ffffff;stroke-width:0.073206"
       d=""
       id="path572" />
    <circle
       style="fill:#ffffff;stroke:#000000;stroke-width:0.447255;stroke-opacity:1"
       id="path2167-0"
       cx="216.36433"
       cy="150.2209"
       r="8.776372" />
    <circle
       style="fill:#ffffff;stroke:#000000;stroke-width:0.447255;stroke-opacity:1"
       id="path2167-0-6"
       cx="193.36433"
       cy="107.22089"
       r="8.776372" />
    <circle
       style="fill:#ffffff;stroke:#000000;stroke-width:0.447255;stroke-opacity:1"
       id="path2167-0-6-4"
       cx="153.36433"
       cy="107.22089"
       r="8.776372" />
    <circle
       style="fill:#ffffff;stroke:#000000;stroke-width:0.447255;stroke-opacity:1"
       id="path2167-0-7"
       cx="256.36435"
       cy="150.2209"
       r="8.776372" />
    <circle
       style="fill:#ffffff;stroke:#000000;stroke-width:0.447255;stroke-opacity:1"
       id="path2167"
       cx="236.36433"
       cy="130.2209"
       r="8.776372" />
    <circle
       style="fill:#ffffff;stroke:#000000;stroke-width:0.447255;stroke-opacity:1"
       id="path2167-0-9"
       cx="236.36433"
       cy="170.2209"
       r="8.776372" />
    <ellipse
       style="fill:none;stroke:#000000;stroke-width:0.442187;stroke-opacity:1"
       id="path2282"
       cx="236.86047"
       cy="150.55258"
       rx="39.828503"
       ry="39.682091" />
    <ellipse
       style="fill:none;stroke:#000000;stroke-width:0.442187;stroke-opacity:1"
       id="path2282-2"
       cx="103.08973"
       cy="150.55258"
       rx="39.828503"
       ry="39.682091" />
    <ellipse
       style="fill:#ffffff;stroke:#000000;stroke-width:0.4625;stroke-opacity:1"
       id="path2398"
       cx="129.36433"
       cy="223.2209"
       rx="24.768749"
       ry="24.768751" />
    <circle
       style="fill:#ffffff;stroke:#000000;stroke-width:0.333;stroke-opacity:0.30000001;fill-opacity:1"
       id="path2398-8"
       cx="129.36433"
       cy="223.2209"
       r="17.8335" />
    <ellipse
       style="fill:#ffffff;stroke:#000000;stroke-width:0.4625;stroke-opacity:1"
       id="path2398-1"
       cx="208.36433"
       cy="223.2209"
       rx="24.768749"
       ry="24.768751" />
    <circle
       style="fill:#ffffff;stroke:#000000;stroke-width:0.333;stroke-opacity:0.30000001"
       id="path2398-8-6"
       cx="208.36433"
       cy="223.2209"
       r="17.8335" />
    <path
       style="fill:#ffffff;stroke:#000000;stroke-width:0.414926;stroke-opacity:1"
       d="m 112.15597,137.1435 c -0.003,-4.21207 -0.0186,-8.46313 0,-12.67516 -5.77397,-0.0466 -10.72108,-0.0596 -16.558449,0 -0.05879,4.69208 0.0019,8.22834 0,12.67516 l 8.279229,8.77512 z"
       id="path543-3"
       sodipodi:nodetypes="cccccc" />
    <path
       style="fill:#ffffff;stroke:#000000;stroke-width:0.414926;stroke-opacity:1"
       d="m 117.44176,159.01251 c 4.21208,-0.003 8.46313,-0.0186 12.67517,0 0.0466,-5.77397 0.0596,-10.72109 0,-16.55845 -4.69208,-0.0588 -8.22835,0.002 -12.67517,0 l -8.77511,8.27923 z"
       id="path543-3-7"
       sodipodi:nodetypes="cccccc" />
    <path
       style="fill:#ffffff;stroke:#000000;stroke-width:0.414926;stroke-opacity:1"
       d="m 95.572715,164.29829 c 0.003,4.21208 0.0186,8.46313 0,12.67517 5.773965,0.0466 10.721075,0.0596 16.558445,0 0.0588,-4.69209 -0.002,-8.22834 0,-12.67517 l -8.27923,-8.77511 z"
       id="path543-3-7-1"
       sodipodi:nodetypes="cccccc" />
    <path
       style="fill:#ffffff;stroke:#000000;stroke-width:0.414926;stroke-opacity:1"
       d="m 90.286946,142.42927 c -4.212078,0.003 -8.463124,0.0186 -12.675162,0 -0.04661,5.77397 -0.05961,10.72108 0,16.55845 4.692082,0.0588 8.228337,-0.002 12.675162,0 l 8.775115,-8.27923 z"
       id="path543-3-7-1-1"
       sodipodi:nodetypes="cccccc" />
    <path
       style="fill:#ffffff;fill-opacity:1;stroke-width:0.292824"
       d="m 218.31075,84.960031 c 0.10076,-3.261324 0.19783,-5.951259 0.21572,-5.977625 0.0179,-0.02639 7.88504,-0.144369 17.48257,-0.262217 l 17.45006,-0.21427 0.19258,1.842493 c 0.10592,1.013372 0.19258,3.799728 0.19258,6.1919 v 4.349405 H 235.9859 218.12755 Z"
       id="path12850" />
    <path
       d="M 124.15433,83.220897 V 76.430901 H 105.86434 87.574344 v 6.789996 6.789998 h 18.289996 18.28999 z"
       style="fill:#ffffff;stroke:#000000;stroke-width:0.420006;stroke-opacity:1"
       id="path2367" />
    <path
       d="M 117.17036,55.220894 V 44.41488 h -9.80603 -9.806007 v 10.806014 10.806022 h 9.806007 9.80603 z"
       style="fill:#ffffff;stroke:#000000;stroke-width:0.387965;stroke-opacity:1"
       id="path2367-84" />
    <path
       d="m 254.15434,83.220897 v -6.789996 h -18.29 -18.28999 v 6.789996 6.789998 h 18.28999 18.29 z"
       style="fill:#ffffff;stroke:#000000;stroke-width:0.420006;stroke-opacity:1"
       id="path2367-8" />
    <path
       d="M 246.17036,55.220894 V 44.41488 h -9.80603 -9.80601 v 10.806014 10.806022 h 9.80601 9.80603 z"
       style="fill:#ffffff;stroke:#000000;stroke-width:0.387965;stroke-opacity:1"
       id="path2367-84-6" />
  </g>
</svg>
