<?xml version="1.0" encoding="UTF-8" standalone="no"?>
<!-- Created with Inkscape (http://www.inkscape.org/) -->

<svg
   version="1.1"
   id="svg2"
   width="666.66669"
   height="666.66669"
   viewBox="0 0 666.66669 666.66669"
   sodipodi:docname="logo2.svg"
   inkscape:version="1.2.2 (732a01da63, 2022-12-09)"
   inkscape:export-filename="logo.png"
   inkscape:export-xdpi="96"
   inkscape:export-ydpi="96"
   xmlns:inkscape="http://www.inkscape.org/namespaces/inkscape"
   xmlns:sodipodi="http://sodipodi.sourceforge.net/DTD/sodipodi-0.dtd"
   xmlns="http://www.w3.org/2000/svg"
   xmlns:svg="http://www.w3.org/2000/svg">
  <defs
     id="defs6">
    <clipPath
       clipPathUnits="userSpaceOnUse"
       id="clipPath271">
      <g
         id="g275">
        <g
           inkscape:label="Clip"
           id="use273"
           clip-path="url(#clipPath271)">
          <path
             style="fill:#050505;stroke:none;stroke-width:1.33333"
             d="m 140.04362,141.91568 c -5.12134,2.80454 -5.37467,8.11 -5.41067,13.29627 -0.0568,8.21306 3.05333,23.8772 -3.09187,30.26333 -4.586,4.766 -12.5808,5.27933 -18.2428,8.338 -14.208129,7.67734 -25.925726,17.90267 -33.929066,32.06534 -14.59053,25.82133 -15.606,55.768 -22.6532,84 -6.0468,24.224 -9.7184,48.876 -14.5792,73.33333 -4.96947,25.00267 -10.92627,49.74801 -15.99907,74.66667 -1.88893,9.27867 -4.59093,18.62267 -5.894,28.00001 -4.43533,31.92 3.4076,63.67733 26.38787,86.66666 4.61893,4.62134 9.06907,9.69734 14.66667,13.16001 46.454536,28.74133 110.865336,17.54266 140.032006,-30.49334 7.864,-12.952 9.572,-27.44933 14.76933,-41.33333 6.71067,-17.928 21.884,-34.53201 39.86534,-41.71467 20.01333,-7.996 40.16533,-6.28534 61.33333,-6.28534 41.17467,0 91.05734,-9.46666 121.77201,24.60801 14.892,16.52 16.644,37.11466 25.34,56.72533 5.85733,13.208 16.83733,25.036 27.55466,34.49334 30.764,27.15066 81.14401,25.13066 114.66667,5.03733 6.64267,-3.98133 11.932,-10.06134 17.32801,-15.53067 21.49733,-21.792 30.588,-52.47333 26.39333,-82.66667 -2.05467,-14.78133 -6.64267,-29.41733 -9.78133,-44 -10.21067,-47.444 -19.01734,-95.164 -29.18134,-142.66667 -6.68,-31.21067 -22.62411,-67.26727 -32.72839,-81.9872 -4.43601,-7.71618 -17.74565,-21.43881 -23.80077,-25.78661 -5.83827,-4.09292 -12.78454,-7.64031 -17.6508,-10.02228 -5.19077,-2.54082 1.22319,-36.28435 -7.99071,-42.16685 -5.91467,-3.2396 -16.03867,-2.66868 -22.588,-2.66868 h -54.66667 c -6.29066,0 -19.644,-1.20572 -24.55333,3.43615 -6.78667,6.4168 -4.724,20.2444 -4.78134,28.5288 -0.032,4.75213 0.0933,10.0648 -5.41066,11.57613 -5.24,1.43907 -11.856,0.42387 -17.25467,0.42387 h -36 c -35.88667,0 -72.15067,1.53626 -107.99867,-0.0257 -18.24134,-0.7948 -3.292,-30.588 -14.08133,-40.50306 -5.03067,-4.62227 -18.20934,-3.11158 -24.58667,-3.11158 h -54.66667 c -6.54933,0 -16.67333,-0.89549 -22.588,2.34411 m 379.92134,41.10191 H 440.3481 c -0.91319,-8.56234 -0.62885,-17.3638 0.0409,-27.94775 h 78.70168 m -287.12569,28.14211 c -27.40595,0 -54.84401,0.23154 -82.17256,-3e-5 v -27.96197 c 39.86354,0.17095 44.67719,0.14082 80.03523,-9.7e-4 0,11.9074 0.005,19.99179 0,27.96294 m -51.19566,44.5 c 50.64133,-9.46267 95.13914,30.29418 97.27514,78.86619 0.18267,4.13733 -0.62314,13.90848 -1.10447,17.96715 -4.24533,35.77066 -30.444,67.29333 -66.83734,74.16667 -39.884,7.532 -80.39147,-13.16001 -97.39813,-50.16667 -5.54414,-12.064 -6.60187,-24.296 -6.60187,-37.33334 0,-11.70666 2.33147,-22.724 7.57307,-33.33333 6.82666,-13.81734 16.19666,-24.86267 28.42693,-34 11.412,-8.52534 24.73067,-13.56267 38.66667,-16.16667 m 288.00001,0 c 45.04267,-8.416 91.01334,27.38267 98.32134,71.5 5.196,31.368 -7.628,60.22 -30.32134,81.21334 -9.904,9.16267 -23.948,16.144 -37.33333,18.35333 -23.07334,3.80934 -47.296,0.124 -66.66667,-13.74933 -22.116,-15.84 -37.13815,-37.28051 -37.66748,-64.72451 -0.0707,-3.66267 0.18029,-15.80522 0.70162,-19.38789 3.668,-25.23333 16.46452,-44.71694 38.29919,-58.79694 10.67067,-6.88133 22.15734,-12.07067 34.66667,-14.408 m 8,27.084 c -26.616,8.30933 -12.25733,46.58667 13.332,36.76 22.45733,-8.624 8.97467,-43.724 -13.332,-36.76 m -45.332,44.10833 c -24.35467,8.24267 -11.57867,45.46134 11.99867,38.104 24.14,-7.532 12.76666,-46.48667 -11.99867,-38.104 m 88,-0.17466 c -25.11733,7.29333 -11.624,45.64666 11.99867,38.27866 24.29067,-7.57466 13.06533,-45.556 -11.99867,-38.27866 m -42.668,42.668 c -25.88933,7.328 -13.97067,46.52933 11.99467,38.27733 22.98,-7.30133 11.07333,-44.808 -11.99467,-38.27733 m -98.66667,53.00133 c 22.77867,-1.79466 26,34.15867 4,36.64 -25.30533,2.85334 -28.96533,-34.67066 -4,-36.64 m -90.66,1.392 c 5.01333,-1.39466 12.86933,-1.332 17.30666,1.55867 13.60534,8.868 10.412,29.20267 -5.31333,33.22933 -6.96,1.78267 -15.77467,0.0293 -19.988,-6.20666 -5.82133,-8.616 -2.94,-25.54 7.99467,-28.58134 z"
             id="path584"
             sodipodi:nodetypes="cccccccsccccccsccccccccccscsscccssscssccccccccccccccssccccscccsccccsccccccccccccccccsc" />
        </g>
      </g>
    </clipPath>
  </defs>
  <sodipodi:namedview
     id="namedview4"
     pagecolor="#ffffff"
     bordercolor="#000000"
     borderopacity="0.25"
     inkscape:showpageshadow="2"
     inkscape:pageopacity="0.0"
     inkscape:pagecheckerboard="0"
     inkscape:deskcolor="#d1d1d1"
     showgrid="false"
     inkscape:zoom="1.089298"
     inkscape:cx="-375.01218"
     inkscape:cy="379.14328"
     inkscape:window-width="3440"
     inkscape:window-height="1369"
     inkscape:window-x="-8"
     inkscape:window-y="-8"
     inkscape:window-maximized="1"
     inkscape:current-layer="g8">
    <inkscape:grid
       type="xygrid"
       id="grid588" />
  </sodipodi:namedview>
  <g
     inkscape:groupmode="layer"
     inkscape:label="Image"
     id="g8">
    <g
       id="g582"
       transform="translate(1.641133e-8,-14.68836)">
      <path
         style="fill:#ffffff;stroke-width:0.918022"
         d="m 539.32302,573.80007 c -14.12236,-1.79614 -28.35889,-6.89131 -38.50282,-13.77992 -13.21026,-8.97091 -28.22426,-25.94109 -34.36507,-38.84252 -1.73462,-3.64432 -5.50003,-13.64891 -8.36757,-22.23242 -7.31317,-21.89079 -10.85424,-28.37611 -21.07209,-38.5927 -6.90995,-6.90911 -9.75868,-9.02612 -17.02019,-12.64841 -19.58314,-9.76876 -32.55569,-11.1179 -95.01533,-9.88153 -39.89253,0.78966 -46.98267,1.14382 -54.16332,2.70547 -15.68175,3.41049 -24.67165,7.98295 -35.01786,17.81085 -12.39775,11.77664 -17.18914,20.24143 -23.76697,41.98831 -5.73092,18.94689 -7.05218,22.10221 -13.00524,31.05789 -12.93928,19.46567 -32.20571,32.75535 -57.12437,39.40348 -7.71128,2.05732 -10.64621,2.34775 -23.9363,2.36862 -20.051019,0.0315 -30.883573,-2.40927 -47.603047,-10.72581 -17.857667,-8.88268 -35.315666,-28.79478 -43.248438,-49.32794 -4.961793,-12.84308 -6.680826,-24.11512 -6.219258,-40.78088 0.348438,-12.58097 0.879931,-16.79576 3.704467,-29.37672 9.005079,-40.11017 18.51843,-85.39614 23.142182,-110.1627 2.827914,-15.14737 6.956426,-35.59632 9.174471,-45.44211 2.218045,-9.84579 5.120752,-23.89153 6.45046,-31.21276 7.514895,-41.3762 15.049471,-59.1897 31.80965,-75.20544 6.529673,-6.23965 18.158053,-13.51741 26.399013,-16.52215 13.80687,-5.03413 14.86196,-7.06335 14.65244,-28.18051 -0.13715,-13.82305 0.0123,-15.40784 1.66301,-17.63896 3.88578,-5.25196 3.23198,-5.1842 52.59882,-5.45127 41.94168,-0.2269 45.68459,-0.12083 48.58994,1.37703 6.17305,3.18254 6.83995,5.08506 7.41879,21.16405 0.56906,15.80733 1.51262,18.82887 6.29994,20.17408 1.32656,0.37275 39.27054,0.67773 84.31999,0.67773 h 81.90808 l 2.09098,-2.08771 c 1.95009,-1.94704 2.12369,-3.06043 2.57651,-16.5244 0.686,-20.39738 2.40841,-23.48129 13.84235,-24.78422 3.22774,-0.36781 24.45856,-0.46219 47.17962,-0.20974 32.11954,0.35689 41.84436,0.7342 43.70812,1.69583 4.36578,2.25257 5.52403,6.4975 6.39231,23.42748 0.43678,8.51624 1.04376,16.27057 1.34885,17.23185 0.30511,0.96128 2.69301,2.83111 5.30648,4.15518 13.82505,7.00427 29.2092,20.88005 37.64529,33.95431 11.18765,17.33861 24.56441,49.5956 30.7794,74.22214 1.0194,4.0393 8.09698,38.12088 15.72796,75.73685 7.63097,37.61597 15.91618,76.964 18.41157,87.44007 6.05379,25.41476 7.3011,33.06069 7.3011,44.75517 0,17.24552 -3.54609,31.69959 -11.39833,46.46028 -5.43476,10.21627 -10.34135,16.40881 -21.7715,27.47752 -10.34111,10.01409 -17.74251,14.40534 -32.27675,19.14979 -14.26008,4.65496 -33.68863,6.81481 -46.56734,5.17684 z M 298.35607,403.83443 c 8.88156,-2.23641 15.16924,-11.55973 13.82796,-20.504 -0.81369,-5.42603 -5.03131,-11.76931 -9.11331,-13.70635 -4.55479,-2.16138 -11.27264,-2.8248 -15.91745,-1.57192 -8.59686,2.31892 -12.67815,9.14792 -12.05527,20.17141 0.3102,5.48971 0.76994,6.93016 3.16512,9.91692 1.8721,2.33451 4.30078,4.01424 7.31709,5.0607 5.39014,1.87001 7.45731,1.97247 12.77586,0.63324 z m 88.6246,-1.29927 c 8.75018,-4.5249 11.68285,-17.79433 6.05508,-27.3974 -6.17285,-10.53316 -23.7542,-10.81724 -30.58566,-0.4942 -4.88306,7.3788 -3.04534,20.95396 3.49794,25.83922 5.81389,4.3407 14.89409,5.22675 21.03264,2.05238 z m -173.45471,-31.5349 c 32.38541,-8.39297 56.6218,-36.10953 61.91623,-70.80691 4.72395,-30.95874 -3.14096,-56.87315 -23.41337,-77.14554 -9.94407,-9.94407 -19.94195,-16.03443 -33.99848,-20.71067 -7.38117,-2.45552 -8.67207,-2.59533 -23.86859,-2.58501 -14.81323,0.0101 -16.70937,0.20505 -24.32759,2.50165 -31.17585,9.39829 -54.53611,32.26976 -63.07524,61.75547 -1.85332,6.39955 -2.09147,9.12815 -1.99634,22.87277 0.089,12.85963 0.45626,16.89897 2.08657,22.95056 6.08492,22.58673 21.73243,41.74073 43.48323,53.22751 8.21519,4.3385 19.96347,8.28283 28.682,9.62959 8.36027,1.29142 26.42112,0.4073 34.51158,-1.68942 z m 288.17332,0.32851 c 22.85049,-5.17567 43.47574,-22.20073 55.715,-45.98983 6.88608,-13.38427 9.46459,-24.26614 9.46459,-39.94254 0,-22.3986 -8.01421,-41.75028 -24.22784,-58.50228 -11.74637,-12.13641 -23.02831,-19.21446 -39.11571,-24.54039 -7.16514,-2.3721 -8.9667,-2.58745 -22.03254,-2.63359 -16.28098,-0.0575 -22.82892,1.34165 -36.24447,7.74463 -29.0066,13.84427 -46.84267,36.5982 -51.0057,65.06924 -1.59767,10.92655 -0.68583,30.85136 1.80475,39.43631 3.9384,13.57549 11.10046,24.92597 22.74586,36.0478 14.67681,14.01692 30.02429,21.82807 48.47021,24.66906 7.83217,1.20629 26.32423,0.47661 34.42585,-1.35841 z M 230.88265,142.29348 v -14.68836 h -40.39299 -40.39299 v 14.68836 14.68836 h 40.39299 40.39299 z m 290.0951,5.18379 c 0,-4.7226 -0.26586,-11.13015 -0.5908,-14.239 l -0.5908,-5.65245 -39.57269,0.23916 -39.57268,0.23915 -0.25342,13.99985 -0.25341,13.99984 h 40.4169 40.4169 z"
         id="path541" />
      <path
         style="fill:#ffffff;stroke-width:0.918022"
         d="m 183.60449,339.33725 c -7.17679,-3.31179 -9.63923,-9.08265 -9.63923,-22.59001 V 306.6195 h -10.4975 c -5.77362,0 -11.66044,-0.44063 -13.08182,-0.97917 -10.5401,-3.99354 -14.04638,-21.13805 -6.04499,-29.55793 4.43287,-4.6647 6.5517,-5.26577 18.56245,-5.26577 h 11.06186 v -9.96126 c 0,-11.05094 0.92878,-14.94555 4.48551,-18.8089 3.75516,-4.07888 6.73963,-5.19667 13.87494,-5.19667 7.31743,0 10.50015,1.24366 14.08471,5.50367 3.31115,3.93506 4.2647,8.18939 4.27062,19.05343 l 0.005,9.40973 h 10.58674 c 11.9083,0 15.27263,0.94991 18.98346,5.35998 3.35515,3.98738 4.71507,8.73176 4.1294,14.40632 -0.63192,6.12277 -2.52879,9.76606 -6.77133,13.00554 -3.21881,2.45781 -3.8874,2.58537 -15.05589,2.87265 l -11.6875,0.30062 -0.35245,11.17466 c -0.39857,12.63716 -1.37517,15.4242 -6.87464,19.61891 -2.90843,2.21839 -4.32849,2.60506 -10.32871,2.81242 -4.46334,0.15423 -7.94376,-0.2151 -9.71075,-1.03048 z"
         id="path543" />
      <path
         style="fill:#ffffff;stroke-width:0.918022"
         d="m 428.30862,308.22408 c -7.89071,-4.17271 -12.55082,-14.97708 -10.18074,-23.60384 1.59119,-5.79169 6.58791,-10.50241 13.16954,-12.41574 8.69581,-2.52794 15.81147,0.40176 20.54839,8.46031 2.16605,3.68492 2.57531,5.41304 2.57531,10.87436 0,8.4734 -2.85614,13.22546 -9.92783,16.51801 -5.98433,2.78627 -11.131,2.83934 -16.18467,0.1669 z"
         id="path545" />
      <path
         style="fill:#ffffff;stroke-width:0.918022"
         d="m 472.45272,263.32664 c -7.60937,-3.76653 -12.37391,-13.91895 -10.24411,-21.82842 2.30613,-8.56433 11.14907,-14.42694 20.58123,-13.64476 8.40236,0.69679 15.42878,8.02911 16.71973,17.44765 1.95371,14.25389 -13.66076,24.6564 -27.05685,18.02553 z"
         id="path547" />
      <path
         style="fill:#ffffff;stroke-width:0.918022"
         d="m 516.57465,308.33787 c -12.81392,-6.34275 -15.18513,-26.01365 -4.04107,-33.52363 4.31882,-2.91045 11.41287,-4.25779 15.96473,-3.03209 5.30241,1.42778 11.32313,7.34995 13.19173,12.97577 3.30197,9.9413 -0.30949,19.22199 -9.0666,23.29926 -5.88279,2.739 -10.90494,2.82683 -16.04879,0.28069 z"
         id="path549" />
      <path
         style="fill:#ffffff;stroke-width:0.918022"
         d="m 474.61761,352.07078 c -2.07538,-0.72754 -5.29144,-3.05849 -7.39627,-5.3607 -6.09539,-6.66699 -7.49704,-14.57257 -3.8495,-21.7119 3.75873,-7.35696 12.66877,-12.09132 20.12372,-10.69276 10.79608,2.02535 18.56929,16.96876 14.47532,27.82769 -1.61408,4.28123 -6.40675,8.4913 -11.33105,9.95366 -5.53831,1.6447 -7.29158,1.64237 -12.02222,-0.016 z"
         id="path551" />
    </g>
    <path
       style="fill:#ffffff;stroke-width:0.162285"
       d=""
       id="path572" />
  </g>
</svg>
